<mxfile host="app.diagrams.net" agent="Mozilla/5.0 (Windows NT 10.0; Win64; x64) AppleWebKit/537.36 (KHTML, like Gecko) Chrome/136.0.0.0 Safari/537.36" version="26.2.14">
  <diagram id="oaSn5VMbO52xbcTTIm35" name="Page-1">
    <mxGraphModel dx="2276" dy="751" grid="1" gridSize="10" guides="1" tooltips="1" connect="1" arrows="1" fold="1" page="1" pageScale="1" pageWidth="850" pageHeight="1100" math="0" shadow="0">
      <root>
        <mxCell id="0" />
        <mxCell id="1" parent="0" />
        <mxCell id="85PScNSMnp1XMpTgIIud-17" value="" style="endArrow=none;html=1;rounded=0;" parent="1" edge="1">
          <mxGeometry width="50" height="50" relative="1" as="geometry">
            <mxPoint x="810" y="323.33333333333326" as="sourcePoint" />
            <mxPoint x="800" y="320" as="targetPoint" />
          </mxGeometry>
        </mxCell>
        <mxCell id="Du2p9vESQaeFkAfOwfHu-1" value="pfSense9201&amp;nbsp;&lt;div&gt;&amp;nbsp;IP 172.16.9.201&lt;/div&gt;" style="rounded=0;whiteSpace=wrap;html=1;" vertex="1" parent="1">
          <mxGeometry x="120" y="680" width="160" height="160" as="geometry" />
        </mxCell>
        <mxCell id="Du2p9vESQaeFkAfOwfHu-2" value="pfSense9202&amp;nbsp;&lt;div&gt;IP 172.16.9.202&lt;/div&gt;" style="rounded=0;whiteSpace=wrap;html=1;" vertex="1" parent="1">
          <mxGeometry x="120" y="880" width="160" height="150" as="geometry" />
        </mxCell>
        <mxCell id="Du2p9vESQaeFkAfOwfHu-3" value="pfSense9203&lt;div&gt;IP 172.16.9.203&lt;/div&gt;" style="rounded=0;whiteSpace=wrap;html=1;" vertex="1" parent="1">
          <mxGeometry x="640" y="680" width="170" height="160" as="geometry" />
        </mxCell>
        <mxCell id="Du2p9vESQaeFkAfOwfHu-4" value="pfSense9204&amp;nbsp;&lt;div&gt;IP 172.16.9.204&lt;/div&gt;" style="rounded=0;whiteSpace=wrap;html=1;" vertex="1" parent="1">
          <mxGeometry x="640" y="880" width="170" height="160" as="geometry" />
        </mxCell>
        <mxCell id="Du2p9vESQaeFkAfOwfHu-5" value="" style="endArrow=none;dashed=1;html=1;rounded=0;" edge="1" parent="1">
          <mxGeometry width="50" height="50" relative="1" as="geometry">
            <mxPoint x="360" y="640" as="sourcePoint" />
            <mxPoint x="80" y="640" as="targetPoint" />
          </mxGeometry>
        </mxCell>
        <mxCell id="Du2p9vESQaeFkAfOwfHu-6" value="" style="endArrow=none;dashed=1;html=1;rounded=0;" edge="1" parent="1">
          <mxGeometry width="50" height="50" relative="1" as="geometry">
            <mxPoint x="360" y="1080" as="sourcePoint" />
            <mxPoint x="80" y="1080" as="targetPoint" />
          </mxGeometry>
        </mxCell>
        <mxCell id="Du2p9vESQaeFkAfOwfHu-7" value="" style="endArrow=none;dashed=1;html=1;rounded=0;" edge="1" parent="1">
          <mxGeometry width="50" height="50" relative="1" as="geometry">
            <mxPoint x="360" y="1080" as="sourcePoint" />
            <mxPoint x="360" y="640" as="targetPoint" />
          </mxGeometry>
        </mxCell>
        <mxCell id="Du2p9vESQaeFkAfOwfHu-8" value="" style="endArrow=none;dashed=1;html=1;rounded=0;" edge="1" parent="1">
          <mxGeometry width="50" height="50" relative="1" as="geometry">
            <mxPoint x="80" y="640" as="sourcePoint" />
            <mxPoint x="80" y="1080" as="targetPoint" />
          </mxGeometry>
        </mxCell>
        <mxCell id="Du2p9vESQaeFkAfOwfHu-10" value="" style="endArrow=none;dashed=1;html=1;rounded=0;fillColor=#fa6800;strokeColor=#C73500;" edge="1" parent="1">
          <mxGeometry width="50" height="50" relative="1" as="geometry">
            <mxPoint x="80" y="840" as="sourcePoint" />
            <mxPoint x="-80" y="840" as="targetPoint" />
          </mxGeometry>
        </mxCell>
        <mxCell id="Du2p9vESQaeFkAfOwfHu-11" value="" style="endArrow=none;dashed=1;html=1;rounded=0;fillColor=#6a00ff;strokeColor=#3700CC;" edge="1" parent="1">
          <mxGeometry width="50" height="50" relative="1" as="geometry">
            <mxPoint x="80" y="920" as="sourcePoint" />
            <mxPoint x="-80" y="920" as="targetPoint" />
          </mxGeometry>
        </mxCell>
        <mxCell id="Du2p9vESQaeFkAfOwfHu-13" value="LAN201 IP VIP GW 10.10.201.1" style="text;html=1;align=center;verticalAlign=middle;whiteSpace=wrap;rounded=0;" vertex="1" parent="1">
          <mxGeometry y="780" width="60" height="40" as="geometry" />
        </mxCell>
        <mxCell id="Du2p9vESQaeFkAfOwfHu-14" value="LAN202&amp;nbsp;&amp;nbsp;&lt;div&gt;IP VIP GW&lt;div&gt;&amp;nbsp;10.10.202.1&lt;/div&gt;&lt;/div&gt;" style="text;html=1;align=center;verticalAlign=middle;whiteSpace=wrap;rounded=0;" vertex="1" parent="1">
          <mxGeometry x="-10" y="930" width="80" height="30" as="geometry" />
        </mxCell>
        <mxCell id="Du2p9vESQaeFkAfOwfHu-15" value="" style="endArrow=none;dashed=1;html=1;rounded=0;" edge="1" parent="1">
          <mxGeometry width="50" height="50" relative="1" as="geometry">
            <mxPoint x="560" y="1080" as="sourcePoint" />
            <mxPoint x="560" y="640" as="targetPoint" />
          </mxGeometry>
        </mxCell>
        <mxCell id="Du2p9vESQaeFkAfOwfHu-16" value="" style="endArrow=none;dashed=1;html=1;rounded=0;" edge="1" parent="1">
          <mxGeometry width="50" height="50" relative="1" as="geometry">
            <mxPoint x="850" y="1080" as="sourcePoint" />
            <mxPoint x="560" y="1080" as="targetPoint" />
          </mxGeometry>
        </mxCell>
        <mxCell id="Du2p9vESQaeFkAfOwfHu-17" value="" style="endArrow=none;dashed=1;html=1;rounded=0;" edge="1" parent="1">
          <mxGeometry width="50" height="50" relative="1" as="geometry">
            <mxPoint x="850" y="640" as="sourcePoint" />
            <mxPoint x="560" y="640" as="targetPoint" />
          </mxGeometry>
        </mxCell>
        <mxCell id="Du2p9vESQaeFkAfOwfHu-18" value="" style="endArrow=none;dashed=1;html=1;rounded=0;" edge="1" parent="1">
          <mxGeometry width="50" height="50" relative="1" as="geometry">
            <mxPoint x="850" y="1080" as="sourcePoint" />
            <mxPoint x="850" y="640" as="targetPoint" />
          </mxGeometry>
        </mxCell>
        <mxCell id="Du2p9vESQaeFkAfOwfHu-19" value="" style="endArrow=none;dashed=1;html=1;rounded=0;fillColor=#008a00;strokeColor=#005700;" edge="1" parent="1">
          <mxGeometry width="50" height="50" relative="1" as="geometry">
            <mxPoint x="1040" y="840" as="sourcePoint" />
            <mxPoint x="850" y="840" as="targetPoint" />
          </mxGeometry>
        </mxCell>
        <mxCell id="Du2p9vESQaeFkAfOwfHu-20" value="" style="endArrow=none;dashed=1;html=1;rounded=0;fillColor=#d80073;strokeColor=#A50040;" edge="1" parent="1">
          <mxGeometry width="50" height="50" relative="1" as="geometry">
            <mxPoint x="1040" y="880" as="sourcePoint" />
            <mxPoint x="850" y="880" as="targetPoint" />
          </mxGeometry>
        </mxCell>
        <mxCell id="Du2p9vESQaeFkAfOwfHu-23" value="" style="endArrow=none;html=1;rounded=0;" edge="1" parent="1">
          <mxGeometry width="50" height="50" relative="1" as="geometry">
            <mxPoint x="-240" y="600" as="sourcePoint" />
            <mxPoint x="360" y="600" as="targetPoint" />
          </mxGeometry>
        </mxCell>
        <mxCell id="Du2p9vESQaeFkAfOwfHu-24" value="" style="endArrow=none;html=1;rounded=0;" edge="1" parent="1">
          <mxGeometry width="50" height="50" relative="1" as="geometry">
            <mxPoint x="-240" y="1120" as="sourcePoint" />
            <mxPoint x="360" y="1120" as="targetPoint" />
          </mxGeometry>
        </mxCell>
        <mxCell id="Du2p9vESQaeFkAfOwfHu-25" value="" style="endArrow=none;dashed=1;html=1;rounded=0;fillColor=#fa6800;strokeColor=#C73500;" edge="1" parent="1">
          <mxGeometry width="50" height="50" relative="1" as="geometry">
            <mxPoint x="-80" y="840" as="sourcePoint" />
            <mxPoint x="-80" y="680" as="targetPoint" />
          </mxGeometry>
        </mxCell>
        <mxCell id="Du2p9vESQaeFkAfOwfHu-26" value="" style="endArrow=none;dashed=1;html=1;rounded=0;fillColor=#6a00ff;strokeColor=#3700CC;" edge="1" parent="1">
          <mxGeometry width="50" height="50" relative="1" as="geometry">
            <mxPoint x="-80" y="1080" as="sourcePoint" />
            <mxPoint x="-80" y="920" as="targetPoint" />
          </mxGeometry>
        </mxCell>
        <mxCell id="Du2p9vESQaeFkAfOwfHu-29" value="" style="endArrow=none;dashed=1;html=1;rounded=0;fillColor=#fa6800;strokeColor=#C73500;" edge="1" parent="1">
          <mxGeometry width="50" height="50" relative="1" as="geometry">
            <mxPoint x="-160" y="720" as="sourcePoint" />
            <mxPoint x="-80" y="720" as="targetPoint" />
          </mxGeometry>
        </mxCell>
        <mxCell id="Du2p9vESQaeFkAfOwfHu-31" value="VM201.10" style="text;strokeColor=none;fillColor=none;align=left;verticalAlign=middle;spacingLeft=4;spacingRight=4;overflow=hidden;points=[[0,0.5],[1,0.5]];portConstraint=eastwest;rotatable=0;whiteSpace=wrap;html=1;" vertex="1" parent="1">
          <mxGeometry x="-230" y="700" width="80" height="30" as="geometry" />
        </mxCell>
        <mxCell id="Du2p9vESQaeFkAfOwfHu-32" value="VM202.10" style="text;strokeColor=none;fillColor=none;align=left;verticalAlign=middle;spacingLeft=4;spacingRight=4;overflow=hidden;points=[[0,0.5],[1,0.5]];portConstraint=eastwest;rotatable=0;whiteSpace=wrap;html=1;" vertex="1" parent="1">
          <mxGeometry x="-240" y="980" width="70" height="30" as="geometry" />
        </mxCell>
        <mxCell id="Du2p9vESQaeFkAfOwfHu-33" value="" style="endArrow=none;dashed=1;html=1;rounded=0;entryX=1;entryY=0.5;entryDx=0;entryDy=0;fillColor=#6a00ff;strokeColor=#3700CC;" edge="1" parent="1">
          <mxGeometry width="50" height="50" relative="1" as="geometry">
            <mxPoint x="-80" y="1000" as="sourcePoint" />
            <mxPoint x="-170" y="1000" as="targetPoint" />
          </mxGeometry>
        </mxCell>
        <mxCell id="Du2p9vESQaeFkAfOwfHu-34" value="" style="endArrow=none;html=1;rounded=0;" edge="1" parent="1">
          <mxGeometry width="50" height="50" relative="1" as="geometry">
            <mxPoint x="-240" y="1120" as="sourcePoint" />
            <mxPoint x="-240" y="600" as="targetPoint" />
          </mxGeometry>
        </mxCell>
        <mxCell id="Du2p9vESQaeFkAfOwfHu-35" value="KVM01-9131" style="text;html=1;align=center;verticalAlign=middle;whiteSpace=wrap;rounded=0;" vertex="1" parent="1">
          <mxGeometry x="300" y="600" width="60" height="30" as="geometry" />
        </mxCell>
        <mxCell id="Du2p9vESQaeFkAfOwfHu-36" value="" style="endArrow=none;html=1;rounded=0;" edge="1" parent="1">
          <mxGeometry width="50" height="50" relative="1" as="geometry">
            <mxPoint x="359.5" y="1120" as="sourcePoint" />
            <mxPoint x="359.5" y="600" as="targetPoint" />
          </mxGeometry>
        </mxCell>
        <mxCell id="Du2p9vESQaeFkAfOwfHu-37" value="" style="endArrow=none;html=1;rounded=0;" edge="1" parent="1">
          <mxGeometry width="50" height="50" relative="1" as="geometry">
            <mxPoint x="560" y="600" as="sourcePoint" />
            <mxPoint x="1200" y="600" as="targetPoint" />
          </mxGeometry>
        </mxCell>
        <mxCell id="Du2p9vESQaeFkAfOwfHu-38" value="" style="endArrow=none;html=1;rounded=0;" edge="1" parent="1">
          <mxGeometry width="50" height="50" relative="1" as="geometry">
            <mxPoint x="560" y="1120" as="sourcePoint" />
            <mxPoint x="560" y="600" as="targetPoint" />
          </mxGeometry>
        </mxCell>
        <mxCell id="Du2p9vESQaeFkAfOwfHu-39" value="LAN203&amp;nbsp;&lt;div&gt;IP VIP GW&lt;/div&gt;&lt;div&gt;10.10.203.1&lt;/div&gt;" style="text;strokeColor=none;fillColor=none;align=left;verticalAlign=middle;spacingLeft=4;spacingRight=4;overflow=hidden;points=[[0,0.5],[1,0.5]];portConstraint=eastwest;rotatable=0;whiteSpace=wrap;html=1;" vertex="1" parent="1">
          <mxGeometry x="860" y="780" width="80" height="60" as="geometry" />
        </mxCell>
        <mxCell id="Du2p9vESQaeFkAfOwfHu-42" value="" style="endArrow=none;dashed=1;html=1;rounded=0;fillColor=#008a00;strokeColor=#005700;" edge="1" parent="1">
          <mxGeometry width="50" height="50" relative="1" as="geometry">
            <mxPoint x="1040" y="640" as="sourcePoint" />
            <mxPoint x="1040" y="840" as="targetPoint" />
          </mxGeometry>
        </mxCell>
        <mxCell id="Du2p9vESQaeFkAfOwfHu-43" value="" style="endArrow=none;dashed=1;html=1;rounded=0;fillColor=#d80073;strokeColor=#A50040;" edge="1" parent="1">
          <mxGeometry width="50" height="50" relative="1" as="geometry">
            <mxPoint x="1040" y="880" as="sourcePoint" />
            <mxPoint x="1040" y="1080" as="targetPoint" />
          </mxGeometry>
        </mxCell>
        <mxCell id="Du2p9vESQaeFkAfOwfHu-44" value="" style="endArrow=none;dashed=1;html=1;rounded=0;fillColor=#008a00;strokeColor=#005700;" edge="1" parent="1" target="Du2p9vESQaeFkAfOwfHu-45">
          <mxGeometry width="50" height="50" relative="1" as="geometry">
            <mxPoint x="1040" y="759.5" as="sourcePoint" />
            <mxPoint x="1120" y="759.5" as="targetPoint" />
          </mxGeometry>
        </mxCell>
        <mxCell id="Du2p9vESQaeFkAfOwfHu-45" value="VM203.10" style="text;strokeColor=none;fillColor=none;align=left;verticalAlign=middle;spacingLeft=4;spacingRight=4;overflow=hidden;points=[[0,0.5],[1,0.5]];portConstraint=eastwest;rotatable=0;whiteSpace=wrap;html=1;" vertex="1" parent="1">
          <mxGeometry x="1130" y="745" width="80" height="30" as="geometry" />
        </mxCell>
        <mxCell id="Du2p9vESQaeFkAfOwfHu-46" value="" style="endArrow=none;dashed=1;html=1;rounded=0;fillColor=#d80073;strokeColor=#A50040;" edge="1" parent="1">
          <mxGeometry width="50" height="50" relative="1" as="geometry">
            <mxPoint x="1040" y="959.5" as="sourcePoint" />
            <mxPoint x="1130" y="960" as="targetPoint" />
          </mxGeometry>
        </mxCell>
        <mxCell id="Du2p9vESQaeFkAfOwfHu-47" value="VM204.10" style="text;strokeColor=none;fillColor=none;align=left;verticalAlign=middle;spacingLeft=4;spacingRight=4;overflow=hidden;points=[[0,0.5],[1,0.5]];portConstraint=eastwest;rotatable=0;whiteSpace=wrap;html=1;" vertex="1" parent="1">
          <mxGeometry x="1130" y="945" width="80" height="30" as="geometry" />
        </mxCell>
        <mxCell id="Du2p9vESQaeFkAfOwfHu-48" value="KVM02-9133" style="text;html=1;align=center;verticalAlign=middle;whiteSpace=wrap;rounded=0;" vertex="1" parent="1">
          <mxGeometry x="560" y="600" width="60" height="30" as="geometry" />
        </mxCell>
        <mxCell id="Du2p9vESQaeFkAfOwfHu-50" value="" style="endArrow=none;html=1;rounded=0;" edge="1" parent="1">
          <mxGeometry width="50" height="50" relative="1" as="geometry">
            <mxPoint x="560" y="1120" as="sourcePoint" />
            <mxPoint x="1200" y="1120" as="targetPoint" />
          </mxGeometry>
        </mxCell>
        <mxCell id="Du2p9vESQaeFkAfOwfHu-52" value="" style="endArrow=none;html=1;rounded=0;" edge="1" parent="1">
          <mxGeometry width="50" height="50" relative="1" as="geometry">
            <mxPoint x="1200" y="1120" as="sourcePoint" />
            <mxPoint x="1200" y="600" as="targetPoint" />
          </mxGeometry>
        </mxCell>
        <mxCell id="Du2p9vESQaeFkAfOwfHu-56" value="VN site to site + HA pfSense" style="text;html=1;align=center;verticalAlign=middle;whiteSpace=wrap;rounded=0;" vertex="1" parent="1">
          <mxGeometry x="430" y="800" width="60" height="30" as="geometry" />
        </mxCell>
        <mxCell id="Du2p9vESQaeFkAfOwfHu-57" value="" style="endArrow=none;dashed=1;html=1;rounded=0;fillColor=#a20025;strokeColor=#6F0000;" edge="1" parent="1">
          <mxGeometry width="50" height="50" relative="1" as="geometry">
            <mxPoint x="560" y="860" as="sourcePoint" />
            <mxPoint x="360" y="860" as="targetPoint" />
          </mxGeometry>
        </mxCell>
        <mxCell id="Du2p9vESQaeFkAfOwfHu-61" value="" style="endArrow=none;dashed=1;html=1;rounded=0;fillColor=#a20025;strokeColor=#6F0000;" edge="1" parent="1">
          <mxGeometry width="50" height="50" relative="1" as="geometry">
            <mxPoint x="360" y="880" as="sourcePoint" />
            <mxPoint x="560" y="880" as="targetPoint" />
          </mxGeometry>
        </mxCell>
        <mxCell id="Du2p9vESQaeFkAfOwfHu-62" value="" style="ellipse;whiteSpace=wrap;html=1;" vertex="1" parent="1">
          <mxGeometry x="390" y="830" width="20" height="80" as="geometry" />
        </mxCell>
        <mxCell id="Du2p9vESQaeFkAfOwfHu-63" value="" style="ellipse;whiteSpace=wrap;html=1;" vertex="1" parent="1">
          <mxGeometry x="510" y="830" width="20" height="80" as="geometry" />
        </mxCell>
        <mxCell id="Du2p9vESQaeFkAfOwfHu-65" value="VPN Tunel" style="text;html=1;align=center;verticalAlign=middle;whiteSpace=wrap;rounded=0;" vertex="1" parent="1">
          <mxGeometry x="425" y="855" width="60" height="30" as="geometry" />
        </mxCell>
        <mxCell id="Du2p9vESQaeFkAfOwfHu-66" value="LAN204&amp;nbsp;&lt;div&gt;IP VIP GW&lt;/div&gt;&lt;div&gt;10.10.204.1&lt;/div&gt;" style="text;strokeColor=none;fillColor=none;align=left;verticalAlign=middle;spacingLeft=4;spacingRight=4;overflow=hidden;points=[[0,0.5],[1,0.5]];portConstraint=eastwest;rotatable=0;whiteSpace=wrap;html=1;" vertex="1" parent="1">
          <mxGeometry x="860" y="890" width="80" height="60" as="geometry" />
        </mxCell>
        <mxCell id="Du2p9vESQaeFkAfOwfHu-67" value="" style="endArrow=classic;startArrow=classic;html=1;rounded=0;" edge="1" parent="1">
          <mxGeometry width="50" height="50" relative="1" as="geometry">
            <mxPoint x="199.5" y="875" as="sourcePoint" />
            <mxPoint x="199.5" y="840" as="targetPoint" />
          </mxGeometry>
        </mxCell>
        <mxCell id="Du2p9vESQaeFkAfOwfHu-68" value="" style="endArrow=classic;startArrow=classic;html=1;rounded=0;" edge="1" parent="1">
          <mxGeometry width="50" height="50" relative="1" as="geometry">
            <mxPoint x="724.5" y="875" as="sourcePoint" />
            <mxPoint x="724.5" y="840" as="targetPoint" />
          </mxGeometry>
        </mxCell>
      </root>
    </mxGraphModel>
  </diagram>
</mxfile>
